<?xml version="1.0" standalone="no"?>
<!DOCTYPE svg PUBLIC "-//W3C//DTD SVG 20010904//EN"
 "http://www.w3.org/TR/2001/REC-SVG-20010904/DTD/svg10.dtd">
<svg version="1.0" xmlns="http://www.w3.org/2000/svg"
 width="225.000000pt" height="225.000000pt" viewBox="0 0 225.000000 225.000000"
 preserveAspectRatio="xMidYMid meet">

<g transform="translate(0.000000,225.000000) scale(0.100000,-0.100000)"
fill="#000000" stroke="none">
<path d="M500 1855 c-78 -22 -136 -59 -205 -130 -199 -205 -320 -628 -287
-999 19 -208 49 -282 132 -323 108 -55 172 -23 387 193 89 89 170 167 181 173
28 15 806 15 834 0 11 -6 92 -84 181 -173 208 -209 272 -243 374 -201 73 31
105 81 130 203 22 108 23 397 0 517 -38 208 -122 418 -221 552 -151 205 -384
257 -614 136 -37 -19 -89 -47 -115 -61 -57 -30 -169 -41 -243 -23 -27 7 -83
32 -124 57 -136 81 -293 111 -410 79z m1119 -249 c40 -21 61 -59 61 -110 0
-118 -152 -164 -217 -67 -32 47 -30 101 4 141 42 51 98 63 152 36z m-946 -77
l37 -10 0 -74 0 -75 70 0 c67 0 70 -1 85 -30 18 -35 19 -56 4 -99 l-11 -31
-79 0 -79 0 0 -75 c0 -85 -8 -95 -80 -95 -72 0 -80 10 -80 95 l0 75 -74 0
c-84 0 -90 5 -88 88 0 63 12 72 98 72 l73 0 3 77 c3 73 4 78 28 84 37 10 51
10 93 -2z m1255 -109 c69 -42 79 -131 22 -188 -51 -51 -115 -49 -172 5 -54 52
-42 143 24 183 42 25 84 25 126 0z m-282 -174 c29 -29 34 -41 34 -80 0 -78
-49 -126 -126 -126 -52 0 -114 62 -114 114 0 76 49 126 124 126 41 0 53 -5 82
-34z"/>
</g>
</svg>